<svg version="1.1" id="Layer_1" xmlns="http://www.w3.org/2000/svg" xmlns:xlink="http://www.w3.org/1999/xlink" x="0px" y="0px"
	 width="100%" viewBox="0 900 2048 250" enable-background="new 0 900 2048 250" xml:space="preserve">

<path fill="#060606" opacity="1.000000" stroke="none" 
	d="
M1150.031006,1127.001099 
	C1150.111938,1126.554688 1150.192749,1126.108276 1150.318604,1124.920654 
	C1150.246338,1122.453125 1150.129150,1120.726807 1150.011841,1119.000366 
	C1150.081177,1118.833008 1150.150513,1118.665771 1150.220825,1117.791504 
	C1150.153198,1098.723267 1150.084473,1080.361938 1150.015625,1062.000488 
	C1150.104736,1061.551025 1150.193726,1061.101440 1150.281494,1059.869019 
	C1150.280151,1022.962341 1150.280151,986.838684 1150.280151,949.982910 
	C1139.781128,978.423157 1129.520386,1006.217834 1119.259521,1034.012573 
	C1117.582520,1038.386475 1115.905396,1042.760498 1113.796021,1047.714844 
	C1108.132324,1061.815674 1102.900879,1075.335938 1097.669434,1088.856201 
	C1096.420532,1091.954102 1095.171631,1095.052002 1093.663208,1098.759033 
	C1090.474243,1107.047974 1087.021118,1114.578247 1084.772827,1122.452637 
	C1082.799683,1129.363525 1079.678101,1133.360474 1072.001831,1131.960938 
	C1067.003174,1131.782471 1062.004639,1131.604126 1056.719116,1130.733887 
	C1052.335327,1119.678711 1048.238281,1109.315186 1044.141357,1098.951660 
	C1041.410278,1091.780029 1038.679199,1084.608521 1035.661377,1076.744873 
	C1030.261963,1063.364380 1025.149414,1050.676025 1020.036804,1037.987671 
	C1017.719177,1032.254639 1015.401550,1026.521484 1013.059448,1020.022949 
	C1008.687561,1008.172363 1004.340210,997.087219 1000.009155,985.624023 
	C998.315308,980.832214 996.605164,976.418518 994.897949,971.635742 
	C992.184814,964.309265 989.468750,957.351868 986.752686,950.394531 
	C986.368896,950.507690 985.985107,950.620850 985.601318,950.733948 
	C986.278259,957.807434 986.955139,964.880920 987.587646,972.315186 
	C987.670593,975.118591 987.797852,977.561218 987.787231,980.455139 
	C987.663452,991.857666 987.645508,1002.809021 987.699646,1013.760010 
	C987.779114,1029.840454 987.910034,1045.920532 988.019104,1062.000732 
	C987.920105,1063.641479 987.821045,1065.282227 987.739441,1067.648926 
	C987.837524,1084.583130 987.918091,1100.791626 987.998779,1117.000000 
	C987.915039,1118.722656 987.831360,1120.445190 987.736450,1123.014404 
	C987.725159,1126.250122 987.725159,1128.639038 987.725159,1131.158447 
	C984.728577,1131.440308 982.348877,1131.664185 979.969116,1131.887939 
	C979.228210,1131.791016 978.487305,1131.693848 977.064087,1131.587402 
	C971.322144,1131.578247 966.262573,1131.578247 961.312012,1131.578247 
	C961.312012,1058.930908 961.312012,987.153381 961.312012,914.856689 
	C965.757874,914.856689 969.882019,914.856689 974.006165,914.856689 
	C982.027283,914.931152 990.048462,915.005615 998.761536,915.312988 
	C1004.258911,927.379272 1009.064392,939.212524 1013.869812,951.045837 
	C1015.613525,955.826904 1017.357178,960.607910 1019.392578,966.024780 
	C1023.733337,976.567627 1027.782471,986.474609 1031.831665,996.381592 
	C1033.263062,1000.815613 1034.694336,1005.249695 1036.502441,1010.265991 
	C1042.916260,1026.232056 1048.953125,1041.615845 1054.989990,1056.999634 
	C1055.369873,1058.570679 1055.749756,1060.141602 1056.483398,1062.296387 
	C1058.838867,1068.040283 1060.840576,1073.200317 1062.842407,1078.360352 
	C1062.842407,1078.360352 1062.769409,1078.732056 1062.890503,1079.244141 
	C1065.037842,1085.665527 1067.063965,1091.574951 1069.544434,1098.809326 
	C1071.552002,1092.301147 1073.103394,1087.271362 1074.654907,1082.241577 
	C1075.138672,1081.054565 1075.622559,1079.867432 1076.336670,1078.178467 
	C1076.683472,1077.116455 1076.799927,1076.556396 1076.916504,1075.996338 
	C1077.290649,1074.900269 1077.664917,1073.804321 1078.396240,1072.108154 
	C1079.665405,1069.012695 1080.555420,1066.509033 1081.492554,1064.023315 
	C1093.563232,1032.009399 1105.640503,999.997986 1117.716064,967.986023 
	C1119.231201,962.788452 1120.729614,957.585754 1122.310791,952.408447 
	C1122.390137,952.148682 1123.184692,952.107300 1124.198730,951.448792 
	C1128.875122,939.637878 1132.998657,928.342346 1137.122192,917.046814 
	C1138.680054,916.436523 1140.225342,915.339478 1141.798096,915.298279 
	C1149.555542,915.095154 1157.320312,915.171753 1165.986816,915.166260 
	C1170.163574,915.182861 1173.436035,915.182861 1177.341553,915.182861 
	C1177.341553,919.431274 1177.341553,923.222900 1177.341553,927.014526 
	C1177.296875,935.697693 1177.252319,944.380920 1177.201172,953.982422 
	C1177.285645,971.886292 1177.376587,988.871765 1177.360962,1006.258850 
	C1177.323608,1019.437256 1177.392944,1032.213989 1177.353271,1045.448364 
	C1177.319458,1060.277710 1177.394775,1074.649658 1177.469971,1089.021484 
	C1177.396606,1100.368896 1177.323242,1111.716431 1177.243774,1123.952393 
	C1177.237793,1126.964600 1177.237793,1129.088257 1177.237793,1131.360352 
	C1175.532349,1131.609985 1174.266602,1131.795410 1173.000854,1131.980713 
	C1166.693359,1131.826782 1160.381104,1131.764893 1154.082275,1131.442871 
	C1152.788940,1131.376709 1151.545532,1130.337402 1150.307129,1129.046509 
	C1150.233765,1127.897949 1150.132324,1127.449463 1150.031006,1127.001099 
z"/>
<path fill="#5628D2" opacity="1.000000" stroke="none" 
	d="
M1345.986938,951.859375 
	C1345.802734,951.805359 1345.618652,951.751282 1345.125977,951.209106 
	C1343.557495,950.098633 1342.297607,949.476318 1340.944946,948.712402 
	C1340.533813,948.331238 1340.264526,948.387390 1339.922363,948.752502 
	C1339.800049,948.765747 1339.555786,948.795654 1339.555786,948.795654 
	C1339.555786,948.795654 1339.224854,948.783630 1338.962402,948.456360 
	C1338.155029,947.739990 1337.609985,947.350891 1336.834717,946.687561 
	C1334.961914,945.641907 1333.388550,944.626770 1331.665894,944.137756 
	C1317.573120,940.136353 1303.292114,939.932434 1289.092285,943.125061 
	C1279.737061,945.228455 1270.990967,949.027649 1263.647705,956.024353 
	C1260.321411,959.496460 1257.339233,962.923401 1254.357056,966.350342 
	C1254.357056,966.350281 1254.114868,966.266968 1253.937012,966.299805 
	C1253.632935,966.684753 1253.506714,967.036865 1253.380371,967.389038 
	C1253.380371,967.389038 1253.026978,967.100708 1252.905273,967.227234 
	C1252.660767,967.705383 1252.537964,968.056946 1252.415161,968.408569 
	C1252.415161,968.408569 1252.304199,968.465271 1251.997314,968.353882 
	C1250.877075,969.587524 1250.063599,970.932617 1249.250000,972.277649 
	C1249.250000,972.277649 1249.169800,972.163452 1248.900513,972.253296 
	C1246.406128,975.915894 1241.340454,977.812378 1242.215942,983.214722 
	C1242.215942,983.214722 1242.177734,983.103333 1241.910889,983.221130 
	C1241.496704,983.961731 1241.349121,984.584473 1241.201660,985.207275 
	C1241.201660,985.207275 1241.140137,985.098694 1240.874512,985.242493 
	C1233.422119,996.821838 1231.299438,1009.760742 1231.261719,1022.764282 
	C1231.225830,1035.109619 1232.860229,1047.519165 1237.930664,1059.092163 
	C1238.702026,1060.852661 1239.906738,1062.423462 1240.927612,1064.464233 
	C1241.221313,1065.953735 1241.254761,1067.205811 1241.813599,1068.145508 
	C1246.829102,1076.579102 1252.262085,1084.496094 1259.862061,1091.126709 
	C1271.690552,1101.446533 1285.763550,1105.866943 1300.569092,1107.759033 
	C1317.836304,1109.965698 1334.178345,1105.329712 1349.405884,1097.133545 
	C1351.967041,1095.754883 1353.815308,1093.051514 1355.996460,1090.983276 
	C1356.000000,1091.006226 1355.957275,1090.988281 1356.329346,1091.000732 
	C1358.114136,1089.638794 1359.526855,1088.264160 1360.954590,1086.926514 
	C1360.969604,1086.963501 1360.890015,1086.963379 1361.152222,1086.866455 
	C1361.600952,1086.457520 1361.787476,1086.145386 1362.039795,1085.627930 
	C1362.266968,1085.159424 1362.500610,1085.005493 1363.077637,1084.873657 
	C1363.544922,1084.473511 1363.740845,1084.160400 1363.924683,1083.881348 
	C1363.912476,1083.915161 1363.863525,1083.862061 1364.220703,1083.883301 
	C1366.235718,1081.473633 1367.893433,1079.042725 1369.687012,1076.586914 
	C1369.822754,1076.562012 1369.560669,1076.648560 1369.935669,1076.654785 
	C1370.722900,1075.654907 1371.135254,1074.649048 1371.768921,1073.821533 
	C1371.843384,1073.880981 1371.696655,1073.761841 1371.924438,1073.652832 
	C1374.509888,1069.709839 1376.589844,1065.674316 1378.996948,1061.844360 
	C1379.941895,1060.340698 1381.570923,1058.281006 1382.971191,1058.214233 
	C1390.399658,1057.860229 1397.857910,1057.932373 1405.298340,1058.133789 
	C1407.982666,1058.206299 1409.523315,1059.513550 1408.315308,1062.765015 
	C1407.473755,1065.030762 1407.403442,1067.582886 1406.993408,1070.001709 
	C1406.998047,1069.996338 1406.997803,1069.983887 1406.745605,1069.979980 
	C1406.325684,1069.987305 1406.157959,1069.998535 1405.713623,1070.220215 
	C1400.887695,1078.230469 1396.307739,1086.012695 1391.829590,1093.853149 
	C1391.299072,1094.781860 1391.325562,1096.028564 1391.066895,1097.077393 
	C1391.040039,1097.026978 1391.136841,1097.087891 1390.779297,1097.080811 
	C1388.483276,1099.522705 1386.544800,1101.971680 1384.610107,1104.455322 
	C1384.613892,1104.489868 1384.616821,1104.559326 1384.258301,1104.429565 
	C1380.784790,1106.617310 1377.744141,1109.043457 1374.541748,1111.233276 
	C1361.369751,1120.240112 1347.611572,1127.470337 1331.543945,1130.614014 
	C1317.626953,1133.336792 1303.838989,1133.801758 1290.137817,1131.688354 
	C1264.995361,1127.810181 1244.094238,1115.631836 1227.215332,1096.559570 
	C1226.314209,1095.541382 1224.838379,1095.031494 1223.781738,1094.271851 
	C1223.933228,1094.258789 1223.637451,1094.330078 1223.731934,1093.971069 
	C1222.880615,1092.738525 1221.934937,1091.864868 1220.997070,1090.994141 
	C1221.004883,1090.996948 1221.005371,1091.014038 1220.992065,1090.693970 
	C1220.561035,1089.963013 1220.143433,1089.552246 1219.796875,1089.127197 
	C1219.867920,1089.113037 1219.842651,1089.255859 1219.796143,1088.904663 
	C1218.729614,1087.086548 1217.709839,1085.619629 1216.690063,1084.152710 
	C1216.690063,1084.152710 1216.836304,1084.174438 1216.858276,1083.855957 
	C1215.264404,1080.358398 1213.648682,1077.179199 1212.025635,1073.602295 
	C1209.258789,1062.036255 1206.236572,1050.924683 1203.809570,1039.684570 
	C1201.086792,1027.073975 1202.571533,1014.393433 1204.616333,1001.854492 
	C1206.581787,989.802795 1211.650146,978.807434 1217.430054,968.157898 
	C1225.435669,953.407227 1237.064697,942.140869 1251.227173,933.335815 
	C1255.551880,930.647095 1259.792725,927.823547 1264.459839,925.033325 
	C1267.072266,924.404419 1269.406982,924.061035 1271.503052,923.161194 
	C1284.208984,917.706604 1297.777710,916.173401 1311.234863,916.291504 
	C1323.629761,916.400330 1336.085571,918.459351 1347.784668,923.342224 
	C1353.196289,925.600891 1358.656006,927.744934 1364.057495,929.957275 
	C1364.021118,929.973511 1364.032471,929.894592 1364.153931,930.215942 
	C1368.900757,933.658264 1373.526001,936.779297 1378.104248,939.920837 
	C1378.057251,939.941406 1378.095337,939.846008 1378.115234,940.211243 
	C1378.892578,940.876587 1379.650024,941.176636 1380.394287,941.509460 
	C1380.380981,941.542175 1380.424927,941.597473 1380.395996,941.901001 
	C1380.713623,942.325195 1381.060181,942.445801 1381.218750,942.704590 
	C1381.030884,942.842896 1381.426025,942.594788 1381.396240,942.899048 
	C1381.713623,943.319214 1382.060913,943.435059 1382.440430,943.575562 
	C1382.472656,943.600159 1382.552002,943.583008 1382.396729,943.934814 
	C1384.518066,946.507019 1386.794800,948.727478 1389.049561,950.957214 
	C1389.027344,950.966431 1389.041748,950.922424 1389.043579,951.271301 
	C1389.826050,952.316528 1390.606567,953.012817 1391.414062,953.693604 
	C1391.440918,953.678040 1391.501831,953.666382 1391.380249,954.013306 
	C1393.979736,958.848572 1396.652588,963.367188 1399.438232,967.815125 
	C1401.349365,970.866577 1401.120239,972.894653 1397.857788,975.205383 
	C1386.668823,983.130676 1375.811279,991.521851 1364.701538,999.561401 
	C1354.148071,1007.198486 1343.287720,1014.417969 1332.854492,1022.212219 
	C1327.254883,1026.395508 1322.270020,1031.401733 1317.007690,1036.036621 
	C1317.007690,1036.036621 1317.003784,1035.992676 1316.699463,1036.015259 
	C1315.986328,1036.461670 1315.577515,1036.885498 1315.168823,1037.309326 
	C1315.168823,1037.309326 1315.163818,1037.188477 1314.822021,1037.138672 
	C1313.774414,1037.850220 1313.068604,1038.611694 1312.362793,1039.373047 
	C1312.362793,1039.373047 1312.268311,1039.351074 1311.920654,1039.323730 
	C1308.358643,1040.533691 1305.144165,1041.770996 1301.779907,1042.760620 
	C1301.090942,1042.330933 1300.551758,1042.148804 1299.853882,1041.739258 
	C1299.346069,1041.442139 1298.996826,1041.372314 1298.647705,1041.302612 
	C1298.647705,1041.302612 1298.668457,1041.074463 1298.775146,1040.796265 
	C1298.135254,1039.785767 1297.388550,1039.053467 1296.641968,1038.321167 
	C1296.641968,1038.321167 1296.684570,1038.220703 1296.710693,1037.914795 
	C1296.018188,1036.853882 1295.299683,1036.098877 1294.581177,1035.343750 
	C1294.581177,1035.343750 1294.737549,1034.987061 1294.772705,1034.789307 
	C1293.772949,1033.476807 1292.738159,1032.362061 1291.703369,1031.247314 
	C1291.703369,1031.247314 1291.817505,1031.006714 1291.864502,1030.751709 
	C1290.488892,1028.744385 1289.066284,1026.991943 1287.643677,1025.239502 
	C1287.643677,1025.239502 1287.818481,1025.146606 1287.857666,1024.805176 
	C1289.204590,1022.006348 1289.905151,1018.735535 1291.922852,1017.229492 
	C1301.765869,1009.882446 1312.038940,1003.114685 1321.977905,995.891418 
	C1324.604736,993.982361 1326.584229,991.182739 1328.860962,988.792114 
	C1328.860962,988.792114 1328.924927,988.902649 1329.247437,988.931580 
	C1333.410156,985.934448 1337.250366,982.908447 1341.090576,979.882385 
	C1341.200073,979.718384 1341.309448,979.554321 1341.832520,979.421265 
	C1342.409058,979.197693 1342.572021,978.943176 1342.735107,978.688599 
	C1342.735107,978.688599 1342.832397,978.759644 1343.147217,978.743774 
	C1349.362061,974.147095 1355.262207,969.566284 1361.300537,964.897461 
	C1361.643555,964.486206 1361.566162,964.228577 1361.131104,963.695740 
	C1360.028931,961.902344 1359.002197,960.449707 1357.960083,958.708008 
	C1357.626099,957.984070 1357.307251,957.549133 1356.664795,957.083130 
	C1355.908691,957.027466 1355.475952,957.002869 1355.017334,956.612549 
	C1353.999634,955.526733 1353.007812,954.806702 1351.748535,953.883789 
	C1349.649658,953.073730 1347.818359,952.466553 1345.986938,951.859375 
z"/>
<path fill="#060606" opacity="1.000000" stroke="none" 
	d="
M606.004700,914.893250 
	C613.362061,914.953247 620.719482,915.013306 628.989197,915.084351 
	C634.269897,915.009949 638.638306,914.924438 643.006653,914.838989 
	C652.697876,914.912415 662.389160,914.985901 672.984497,915.068665 
	C693.967773,915.164124 713.081360,918.385315 728.980408,932.044434 
	C729.772400,932.995483 730.564453,933.946533 731.850830,935.233337 
	C735.568970,940.318787 739.855347,944.678589 741.774353,949.907166 
	C744.859131,958.311829 746.379578,967.290588 748.561035,976.026794 
	C747.952820,983.582947 747.344666,991.139160 746.508423,999.397461 
	C741.227478,1021.217163 727.878479,1034.802856 707.464050,1042.370605 
	C714.790833,1055.755859 722.017029,1068.957642 729.243225,1082.159302 
	C729.270813,1082.344604 729.298401,1082.529785 729.617920,1083.223755 
	C738.323364,1099.378662 746.736816,1115.024658 755.794556,1131.868774 
	C748.518066,1131.868774 742.737305,1131.868774 736.956543,1131.868774 
	C734.240234,1131.743774 731.523865,1131.618652 728.048706,1131.470459 
	C725.467529,1130.143555 722.951599,1129.236450 721.940918,1127.468628 
	C717.144775,1119.079834 712.759033,1110.456421 708.227112,1101.916504 
	C705.222778,1096.182129 702.218384,1090.447632 698.985596,1084.015625 
	C693.207520,1073.131836 687.657837,1062.945435 682.108154,1052.759155 
	C680.097107,1048.661987 676.896973,1047.534058 672.340759,1047.632935 
	C664.537048,1047.802368 656.714661,1047.115356 647.995972,1046.788818 
	C640.519348,1046.789795 633.946777,1046.789795 627.630615,1046.789795 
	C627.630615,1056.054688 627.630615,1064.505981 627.630615,1072.957153 
	C627.554077,1081.383911 627.477539,1089.810791 627.389526,1099.019897 
	C627.200256,1110.418579 627.022583,1121.034912 626.844971,1131.651245 
	C621.200806,1131.633301 615.556641,1131.615479 609.104126,1131.580566 
	C606.654053,1131.548218 604.973328,1131.300415 603.378784,1131.567261 
	C600.352844,1132.073364 599.788574,1130.296509 599.592590,1127.981812 
	C599.676147,1118.629150 599.759644,1109.276489 599.849243,1099.014404 
	C599.784180,1083.732788 599.713074,1069.360596 599.641968,1054.988525 
	C599.716980,1052.562134 599.791992,1050.135620 599.885498,1046.969727 
	C599.819641,1045.149902 599.735291,1044.069580 599.650940,1042.989380 
	C599.707397,1032.634033 599.763855,1022.278748 599.834106,1011.016113 
	C599.777283,993.400696 599.706726,976.692566 599.636108,959.984375 
	C599.712646,957.285339 599.789185,954.586365 599.869507,951.118652 
	C599.795776,949.895996 599.718201,949.442078 599.640625,948.988159 
	C599.714905,942.314697 599.789185,935.641296 599.873108,928.149109 
	C599.882751,923.334717 599.882751,919.339050 599.882751,915.388611 
	C602.461731,915.179932 604.233215,915.036560 606.004700,914.893250 
M703.682373,945.638428 
	C696.588074,941.187134 688.849243,938.984558 680.478210,938.975037 
	C666.152283,938.958801 651.826416,938.936279 637.500488,938.918274 
	C634.202271,938.914124 630.904114,938.917603 627.640625,938.917603 
	C627.640625,967.045105 627.640625,994.633545 627.640625,1021.781433 
	C648.234436,1021.781433 668.511414,1022.342163 688.733704,1021.533936 
	C698.185974,1021.156128 706.749756,1016.458008 712.746460,1008.667908 
	C727.814575,989.093872 723.953674,961.087891 703.682373,945.638428 
z"/>
<path fill="#060606" opacity="1.000000" stroke="none" 
	d="
M1827.003906,919.902954 
	C1832.052979,922.571838 1837.138550,925.174927 1842.127563,927.951599 
	C1843.538208,928.736694 1844.666016,930.029602 1846.439453,931.429565 
	C1851.917603,938.195679 1856.879883,944.621887 1861.842163,951.048157 
	C1862.452759,952.749451 1863.063354,954.450684 1863.301147,956.498840 
	C1857.195801,960.582764 1851.463379,964.319763 1845.730957,968.056885 
	C1845.562256,968.073059 1845.393677,968.089294 1844.720093,968.425293 
	C1843.016602,969.510681 1841.818237,970.276245 1841.795776,970.290588 
	C1835.884521,963.494934 1830.325439,957.104309 1824.766479,950.713684 
	C1802.704468,933.325378 1768.836670,943.993652 1760.046021,971.064636 
	C1755.116089,986.246338 1756.136841,1001.955383 1755.444824,1018.959045 
	C1757.595459,1016.885742 1758.942261,1015.650208 1760.219727,1014.346558 
	C1787.158081,986.857178 1842.836426,993.981140 1861.307251,1029.026733 
	C1872.423828,1050.119019 1872.350098,1072.107666 1863.602661,1094.769531 
	C1858.874146,1105.455566 1851.437256,1113.062256 1842.926270,1119.774414 
	C1837.085571,1122.536987 1831.244873,1125.299561 1824.722412,1128.390381 
	C1812.279663,1132.566650 1800.130615,1132.223511 1787.997803,1132.056274 
	C1782.293945,1130.732300 1776.590088,1129.408325 1770.290894,1127.733643 
	C1756.906006,1122.322754 1746.899170,1113.753418 1738.749390,1102.842407 
	C1737.076538,1099.689941 1735.403687,1096.537354 1733.433350,1092.841797 
	C1732.628052,1091.143311 1732.120239,1089.988037 1731.612305,1088.832886 
	C1731.499878,1088.407104 1731.387451,1087.981323 1731.101440,1086.897705 
	C1730.619629,1085.296143 1730.166748,1084.373413 1730.024902,1083.405273 
	C1728.345093,1071.941895 1726.712036,1060.471802 1725.066406,1049.003418 
	C1725.327148,1032.626465 1725.587891,1016.249573 1725.892578,998.999390 
	C1726.184082,983.629333 1728.703613,969.560974 1733.883911,955.994507 
	C1735.337769,953.274414 1736.791626,950.554321 1738.626343,947.297302 
	C1741.823730,943.280090 1744.402588,939.570679 1747.499634,936.360962 
	C1758.312012,925.154846 1771.909790,919.378296 1787.012085,916.707825 
	C1787.460938,916.735840 1787.909668,916.763855 1789.078247,916.699341 
	C1800.856812,915.138184 1811.751221,916.157959 1822.540527,918.769531 
	C1823.127808,918.936401 1823.715210,919.103210 1824.789551,919.494080 
	C1825.852417,919.779724 1826.428101,919.841370 1827.003906,919.902954 
M1820.273804,1099.966675 
	C1826.359863,1096.257446 1831.228760,1091.444092 1834.558716,1085.036377 
	C1843.690552,1067.464600 1839.948730,1043.505127 1826.205444,1032.320190 
	C1812.964355,1021.544189 1792.895996,1019.582336 1778.407104,1027.647827 
	C1762.589233,1036.453125 1754.265625,1052.524658 1757.299438,1070.851074 
	C1759.661133,1085.116699 1766.285400,1097.065918 1780.975586,1102.270264 
	C1794.036133,1106.897339 1807.030762,1106.873291 1820.273804,1099.966675 
z"/>
<path fill="#060606" opacity="1.000000" stroke="none" 
	d="
M1436.305176,988.902466 
	C1436.404541,988.192017 1436.503906,987.481506 1436.601074,986.188110 
	C1436.513672,985.063049 1436.428589,984.520996 1436.343384,983.978882 
	C1436.426147,982.912598 1436.509033,981.846375 1436.597656,979.976868 
	C1436.497681,976.774353 1436.391846,974.375000 1436.285889,971.975708 
	C1436.376831,971.536194 1436.468018,971.096680 1436.572510,969.978271 
	C1436.485229,967.502197 1436.384644,965.705078 1436.283936,963.908020 
	C1436.382935,963.193176 1436.481934,962.478394 1436.579956,961.039795 
	C1436.608398,946.688477 1436.563843,933.059937 1436.769287,919.435059 
	C1436.792358,917.895752 1438.226196,916.377686 1439.005859,914.849792 
	C1440.724121,914.926086 1442.442505,915.002380 1445.035156,915.077698 
	C1454.941528,915.005188 1463.973389,914.933716 1473.005249,914.862183 
	C1482.362305,914.918762 1491.719238,914.975281 1501.984619,915.057373 
	C1515.203125,916.551941 1527.513184,918.021057 1539.823364,919.490112 
	C1543.569702,920.842773 1547.316040,922.195374 1551.685059,923.828613 
	C1554.209595,924.981506 1556.111572,925.853821 1558.013550,926.726196 
	C1558.730835,927.161560 1559.448242,927.596863 1560.675293,928.341736 
	C1568.184570,934.214905 1575.733643,939.221863 1582.061401,945.466248 
	C1592.829590,956.092529 1598.745972,969.709656 1603.104858,984.351074 
	C1603.425781,985.796448 1603.771484,986.895569 1604.085327,988.398560 
	C1607.703857,1004.025879 1607.965576,1019.487061 1607.187622,1035.455811 
	C1605.081909,1046.597656 1603.083618,1057.297241 1600.863037,1068.286865 
	C1596.314941,1081.811646 1589.013672,1093.284668 1579.863159,1103.662354 
	C1573.714844,1108.636719 1567.679932,1113.762451 1561.350586,1118.494507 
	C1559.407715,1119.947021 1556.659180,1120.321533 1553.757568,1121.623291 
	C1539.509399,1128.392456 1524.920288,1130.882080 1509.970581,1131.764893 
	C1500.294067,1131.715210 1490.617432,1131.665405 1480.116455,1131.581055 
	C1468.530273,1131.654785 1457.768677,1131.763306 1447.006958,1131.871826 
	C1443.493286,1131.737793 1439.979492,1131.603760 1436.124146,1130.984009 
	C1435.782471,1130.498291 1435.790283,1130.024292 1435.790283,1130.024292 
	C1435.974487,1129.913086 1436.158569,1129.802002 1436.424072,1128.996094 
	C1436.425049,1114.192505 1436.344727,1100.083618 1436.264282,1085.974609 
	C1436.362915,1084.590576 1436.461548,1083.206543 1436.578613,1080.982422 
	C1436.474976,1076.084961 1436.352783,1072.027466 1436.230591,1067.969971 
	C1436.335327,1066.908447 1436.439941,1065.846802 1436.544678,1063.957886 
	C1436.567383,1054.986938 1436.637085,1046.843018 1436.603027,1038.699707 
	C1436.533325,1022.100525 1436.407593,1005.501526 1436.305176,988.902466 
M1464.013672,1077.500000 
	C1464.013672,1087.267944 1464.013672,1097.036011 1464.013672,1106.737915 
	C1481.735474,1106.737915 1499.128052,1107.909546 1516.301758,1106.470093 
	C1543.786255,1104.166260 1563.799927,1090.055054 1573.849609,1063.785278 
	C1581.594727,1043.539551 1582.309692,1022.456055 1578.857910,1001.262085 
	C1572.347168,961.284241 1547.035767,939.601685 1506.514648,939.037476 
	C1493.689941,938.858887 1480.861328,938.962036 1468.034424,938.964783 
	C1466.765259,938.965088 1465.496094,939.165344 1464.020874,939.290222 
	C1464.020874,985.240967 1464.020874,1030.870361 1464.013672,1077.500000 
z"/>
<path fill="#060606" opacity="1.000000" stroke="none" 
	d="
M375.552673,996.199402 
	C376.810303,985.386536 380.111267,975.203552 385.078583,965.548584 
	C385.934418,963.885071 387.025970,962.342834 388.319824,960.195740 
	C395.445435,946.771790 405.266418,936.558777 416.786346,927.850220 
	C422.745636,924.394958 428.644165,920.826965 434.704926,917.559937 
	C436.315399,916.691833 438.423737,916.747498 441.050842,916.208740 
	C466.128082,909.201843 489.830536,910.625366 512.820068,921.433594 
	C517.891602,924.781738 522.963196,928.129944 528.530884,931.875366 
	C536.268616,940.874939 543.510254,949.477356 550.751892,958.079773 
	C550.937134,958.642944 551.122375,959.206116 551.612305,960.249512 
	C552.595398,961.855103 553.273621,962.980469 553.951843,964.105774 
	C555.603821,968.169312 557.255859,972.232788 559.080322,977.014648 
	C563.743774,990.734680 565.998840,1004.091370 566.367737,1017.864502 
	C566.862549,1036.339966 564.744995,1054.378296 558.778687,1071.912109 
	C556.500000,1076.677612 554.221252,1081.443115 551.603455,1086.752197 
	C542.188416,1103.328125 529.598083,1115.937134 513.193054,1124.200928 
	C505.584229,1128.033569 497.091919,1130.112549 489.000153,1132.986572 
	C486.265533,1133.332275 483.530914,1133.678101 479.975586,1134.110474 
	C474.353149,1134.276367 469.542023,1134.588135 464.751465,1134.393555 
	C446.974243,1133.671875 430.711823,1128.243896 415.989136,1118.236206 
	C411.590637,1114.555908 407.192078,1110.875610 402.338837,1106.744141 
	C391.319000,1093.300659 383.210205,1078.966064 378.192841,1062.942017 
	C375.033966,1053.855835 374.064728,1044.440552 373.940063,1034.098877 
	C374.451843,1020.936401 375.002258,1008.567932 375.552673,996.199402 
M445.862885,941.046082 
	C427.881378,948.594543 415.568878,961.812744 408.117706,979.566345 
	C399.845428,999.276367 398.375641,1019.939087 401.337097,1040.865356 
	C403.946899,1059.307129 410.254028,1076.376465 423.469330,1090.111328 
	C448.765106,1116.401611 505.831024,1120.867554 529.625244,1070.875732 
	C541.706848,1045.492310 542.514526,1018.889282 535.361694,991.934387 
	C531.494690,977.361877 524.820190,964.183228 513.746277,953.810059 
	C494.207825,935.507935 471.178070,933.899719 445.862885,941.046082 
z"/>
<path fill="#060606" opacity="1.000000" stroke="none" 
	d="
M2011.511475,927.945435 
	C2034.171875,943.719177 2042.831177,966.526733 2045.087280,992.524902 
	C2047.479004,1020.086060 2048.143066,1047.637207 2041.950073,1074.853394 
	C2040.598755,1080.791870 2038.007446,1086.448120 2035.954346,1092.604004 
	C2035.595337,1093.442871 2035.269165,1093.912476 2034.660645,1094.858887 
	C2033.601807,1096.891235 2032.825439,1098.446899 2031.827759,1100.168213 
	C2031.549194,1100.508911 2031.491821,1100.683960 2031.186401,1101.057373 
	C2025.810669,1109.364624 2018.815918,1115.590576 2011.019775,1121.008545 
	C2009.485718,1121.954102 2007.951660,1122.899658 2006.531250,1124.245361 
	C2006.644775,1124.645386 2006.507080,1124.699951 2006.507080,1124.699951 
	C2005.869629,1124.699463 2005.232300,1124.699097 2003.940918,1124.947510 
	C1993.432007,1130.111572 1982.852539,1131.827271 1971.987915,1132.284424 
	C1970.277100,1132.253296 1968.566162,1132.222168 1965.993164,1132.162598 
	C1956.086060,1130.448486 1947.041138,1128.762817 1937.996338,1127.077271 
	C1935.976685,1126.145020 1933.956909,1125.212646 1931.465942,1123.772827 
	C1916.031128,1114.963867 1905.868164,1102.423950 1898.972290,1086.999023 
	C1890.100952,1059.504883 1890.625854,1031.203979 1891.796143,1001.992310 
	C1893.519287,990.086487 1895.193359,979.040100 1896.867554,967.993713 
	C1899.959473,961.598022 1903.051514,955.202332 1906.540894,948.294556 
	C1912.917480,937.217896 1922.640259,930.678589 1932.361938,924.138184 
	C1937.107056,922.402405 1941.852051,920.666565 1947.331787,918.740234 
	C1964.938843,914.479309 1981.581787,915.328552 1998.005371,920.878845 
	C2002.396362,923.212646 2006.787476,925.546448 2011.511475,927.945435 
M1926.458618,1073.698242 
	C1929.042480,1082.147705 1933.262939,1089.627563 1940.036621,1095.399414 
	C1965.638062,1117.214233 2005.227051,1103.755737 2011.647705,1070.389404 
	C2017.256592,1041.241699 2016.189575,1011.697693 2012.551880,982.347046 
	C2011.014893,969.947266 2005.608643,959.045898 1995.285889,951.332458 
	C1969.507080,932.070007 1933.125488,945.080811 1926.272217,977.172363 
	C1919.507568,1008.848999 1920.270142,1040.995605 1926.458618,1073.698242 
z"/>
<path fill="#060606" opacity="1.000000" stroke="none" 
	d="
M26.971977,1110.304443 
	C19.844652,1100.560059 14.570387,1090.409668 13.593165,1078.462158 
	C13.460577,1076.841187 13.346761,1075.218628 13.174417,1072.937012 
	C22.243855,1072.937012 30.957691,1072.937012 39.071888,1072.937012 
	C41.742134,1079.159424 44.446774,1085.461914 47.450233,1091.923340 
	C54.763973,1101.973755 65.189056,1106.290283 76.395355,1108.611084 
	C89.599632,1111.345703 102.970253,1111.186035 115.911224,1106.970459 
	C126.140381,1103.638184 134.816711,1097.817627 140.087341,1088.056519 
	C148.623245,1072.248413 143.429977,1054.059937 127.076080,1046.748779 
	C114.572693,1041.159180 101.133919,1037.664062 88.117462,1033.219116 
	C76.023048,1029.088989 63.936932,1024.934448 51.257057,1020.462769 
	C47.647560,1018.469543 44.628155,1016.804199 41.608749,1015.138916 
	C41.608749,1015.138916 41.446682,1015.004456 41.147041,1014.708862 
	C26.939342,1005.482727 19.963860,992.525269 18.684757,976.258911 
	C18.760239,973.460449 18.835720,970.662048 18.979443,967.038452 
	C19.815565,955.040894 24.638706,945.559631 31.295555,936.843018 
	C32.093250,936.092346 32.890926,935.341675 34.157013,934.175171 
	C41.741165,925.978760 50.759602,921.101257 60.259445,916.958252 
	C63.600674,916.083984 66.941902,915.209778 71.059814,914.201294 
	C91.335594,910.071167 110.439323,911.375244 129.120758,918.340332 
	C133.205658,920.416992 137.412125,922.291748 141.328049,924.649170 
	C143.538010,925.979614 145.269684,928.104431 147.715149,930.255066 
	C156.453796,938.176636 162.056030,947.336304 165.082108,958.079529 
	C165.057510,958.299805 165.032913,958.520020 165.076202,959.312988 
	C165.454803,960.924622 165.765518,961.963501 166.076218,963.002380 
	C166.332535,965.612671 166.588852,968.222900 166.917023,971.564819 
	C158.159088,971.564819 149.734268,971.564819 140.853241,971.564819 
	C140.643021,970.788818 140.226852,969.380493 139.880722,967.955200 
	C135.792801,951.122375 124.860817,941.316101 108.228279,937.853027 
	C90.106018,934.079895 72.547188,935.461304 57.432949,947.201233 
	C39.068249,961.465942 41.003201,986.675476 61.879955,996.857361 
	C74.582375,1003.052673 88.778923,1006.149048 102.223297,1010.868286 
	C115.506699,1015.531006 129.134018,1019.541260 141.808289,1025.534302 
	C160.173401,1034.218140 169.614120,1049.646729 170.454880,1070.981812 
	C170.578461,1082.086426 168.134323,1091.747070 163.857239,1100.990479 
	C163.518005,1101.435913 163.178772,1101.881470 162.498810,1102.779175 
	C152.981995,1117.374146 139.885498,1126.148193 123.996910,1131.098755 
	C119.890892,1131.922852 115.784866,1132.746948 110.896530,1133.737549 
	C97.209900,1133.683838 84.305588,1133.463501 71.401276,1133.243164 
	C64.868973,1131.474976 58.336674,1129.706665 51.226765,1127.524536 
	C45.840389,1124.206543 41.031624,1121.302368 36.222839,1118.398315 
	C33.198822,1115.798584 30.174820,1113.198853 26.971977,1110.304443 
z"/>
<path fill="#060606" opacity="1.000000" stroke="none" 
	d="
M347.111755,958.003540 
	C348.336334,968.031799 349.560913,978.059998 350.720734,988.914062 
	C349.801819,1000.350220 346.534393,1010.256775 341.899506,1019.764526 
	C336.662598,1027.497192 331.021454,1034.840820 322.741058,1039.639038 
	C320.355255,1041.021484 317.964203,1042.394897 314.939941,1044.039062 
	C305.042969,1046.591919 295.891663,1049.856689 286.492096,1050.913818 
	C275.026703,1052.203003 263.352631,1051.636719 251.768829,1051.873047 
	C250.465576,1051.864258 249.162323,1051.855347 247.240784,1051.702881 
	C241.166183,1051.559326 235.709869,1051.559326 229.784302,1051.559326 
	C229.784302,1054.521729 229.785812,1057.149170 229.784088,1059.776611 
	C229.769257,1082.243774 229.729446,1104.711060 229.770111,1127.178223 
	C229.775085,1129.924805 229.612869,1132.199585 226.004684,1131.916382 
	C218.322449,1131.916382 210.640198,1131.916382 202.228836,1131.916382 
	C202.228836,1124.776611 202.228836,1117.830811 202.238464,1109.989258 
	C202.166046,1102.395630 202.083984,1095.697876 202.001938,1089.000000 
	C202.097290,1072.431274 202.209244,1055.862671 202.280502,1039.293823 
	C202.312576,1031.833130 202.263474,1024.372192 202.256134,1016.000488 
	C202.179977,1001.726746 202.098938,988.363831 202.017883,975.000854 
	C202.096069,962.970337 202.174240,950.939758 202.253937,938.000244 
	C202.255478,929.888733 202.255478,922.686218 202.255478,914.913879 
	C209.222336,914.913879 215.613358,914.913879 222.004364,914.913879 
	C233.697159,914.979065 245.389969,915.044250 257.994720,915.114746 
	C272.604889,915.736511 286.303131,916.353088 300.001343,916.969666 
	C306.635468,919.393005 313.317596,921.696106 319.874451,924.313171 
	C321.840363,925.097778 323.456726,926.758179 325.742584,928.380981 
	C336.398285,936.221069 342.731567,946.416077 347.111755,958.003540 
M301.146667,1022.937622 
	C311.561615,1017.825806 319.029510,1009.826294 321.762329,998.612183 
	C323.504333,991.463806 324.240326,983.728699 323.619019,976.410156 
	C321.759491,954.506287 305.532959,939.664490 283.519897,939.060486 
	C271.377930,938.727295 259.221100,938.928650 247.070969,938.899353 
	C241.462067,938.885864 235.853088,938.897034 230.045258,938.897034 
	C230.045258,968.702759 230.045258,998.063110 230.045258,1027.321167 
	C248.417725,1027.321167 266.516174,1027.622437 284.593323,1027.134888 
	C289.911499,1026.991455 295.169434,1024.614258 301.146667,1022.937622 
z"/>
<path fill="#060606" opacity="1.000000" stroke="none" 
	d="
M1652.031616,920.040466 
	C1653.144775,920.130310 1654.257812,920.220154 1656.135498,920.327393 
	C1668.981689,920.344849 1681.063354,920.344849 1693.662476,920.344849 
	C1693.662476,924.822449 1693.372314,928.639038 1693.720459,932.396423 
	C1694.548096,941.325806 1693.703369,949.547180 1685.749146,955.372620 
	C1669.038818,972.655762 1652.328613,989.938965 1635.618286,1007.222107 
	C1635.659424,1007.700073 1635.700562,1008.178040 1635.741821,1008.656006 
	C1654.958740,1007.803711 1672.536865,1011.493225 1686.695068,1026.241333 
	C1689.751465,1030.305420 1692.805664,1033.690552 1694.980835,1037.568604 
	C1706.507812,1058.119507 1706.336182,1093.835449 1681.577881,1116.306885 
	C1681.577881,1116.306885 1681.434814,1116.413940 1681.088135,1116.627197 
	C1678.705200,1118.512451 1676.668823,1120.184570 1674.632568,1121.856689 
	C1673.161987,1122.591431 1671.691528,1123.326294 1669.670166,1124.418945 
	C1665.905518,1126.123535 1662.729370,1127.569580 1659.471558,1128.799438 
	C1647.963379,1133.143311 1635.953369,1132.485229 1623.990112,1132.229980 
	C1618.863647,1131.174805 1613.737305,1130.119751 1607.951538,1128.867310 
	C1600.649414,1125.065186 1594.006592,1121.460327 1587.363770,1117.855591 
	C1587.228638,1117.211182 1587.093384,1116.566772 1587.337036,1115.518799 
	C1588.944580,1114.087036 1590.173218,1113.058960 1591.401855,1112.030884 
	C1591.401855,1112.030884 1591.857422,1111.892212 1592.252686,1111.561035 
	C1597.324829,1106.841797 1602.001831,1102.453735 1606.716553,1098.030273 
	C1608.332275,1098.824951 1609.932495,1099.702148 1611.601929,1100.418457 
	C1624.195312,1105.822754 1636.959473,1107.638916 1650.399780,1102.112061 
	C1664.202271,1095.641479 1670.780029,1084.629883 1671.487793,1070.046875 
	C1672.300781,1053.296753 1663.675293,1039.510498 1649.699219,1034.812744 
	C1643.930420,1033.429565 1638.464111,1032.277588 1632.694214,1031.061646 
	C1632.694214,1029.123169 1632.694946,1026.824463 1632.693970,1024.525635 
	C1632.687622,1010.315125 1631.058472,996.369446 1625.913208,982.592285 
	C1626.027954,981.157715 1626.144165,980.128540 1626.574951,979.006714 
	C1629.082642,976.595276 1631.275635,974.276306 1633.640137,971.871826 
	C1633.811646,971.786255 1633.989624,971.446594 1634.262451,971.313416 
	C1642.071411,963.477539 1649.607300,955.774841 1657.901733,947.296814 
	C1655.655029,947.164246 1654.720215,947.059204 1653.785767,947.061890 
	C1646.521484,947.082886 1639.257324,947.124634 1631.532471,947.069702 
	C1623.080444,946.973083 1615.076538,947.216919 1607.104492,946.820374 
	C1604.431763,946.687378 1601.840210,944.921814 1599.094604,943.581787 
	C1593.875977,939.014648 1589.192993,934.053772 1583.543213,930.742798 
	C1578.823853,927.976990 1578.809937,924.843628 1579.527588,920.315735 
	C1586.739990,920.315735 1593.695923,920.341614 1600.651611,920.310669 
	C1617.778320,920.234436 1634.904907,920.132202 1652.031616,920.040466 
z"/>
<path fill="#070808" opacity="1.000000" stroke="none" 
	d="
M768.001709,915.003784 
	C778.361389,915.034241 788.721008,915.064636 799.991333,915.103516 
	C805.603333,915.028259 810.304626,914.944641 815.005981,914.861084 
	C837.031067,914.919983 859.056152,914.978943 881.991455,915.044678 
	C892.936829,914.978027 902.971924,914.904602 913.007080,914.831177 
	C914.399231,914.901794 915.791443,914.972473 918.015259,915.043213 
	C920.900146,914.975586 922.953308,914.907959 925.006531,914.840332 
	C926.719055,914.908569 928.431641,914.976746 930.695679,915.468872 
	C931.247131,923.474609 931.247131,931.056458 931.247131,939.143066 
	C913.522461,939.143066 896.258118,939.143066 878.993774,939.143066 
	C874.964417,939.049744 870.935120,938.956421 866.087830,938.867493 
	C864.674927,939.922058 864.079956,940.972229 863.484985,942.022400 
	C863.431274,944.387268 863.377563,946.752075 863.314209,949.995972 
	C863.370178,969.924255 863.435791,988.973633 863.501465,1008.022949 
	C863.436768,1011.047729 863.372131,1014.072449 863.299194,1017.870972 
	C863.374634,1019.103516 863.458313,1019.562256 863.541992,1020.020996 
	C863.475159,1021.730164 863.408264,1023.439392 863.333130,1025.965332 
	C863.417542,1028.197998 863.510254,1029.613647 863.602966,1031.029419 
	C863.511230,1035.376831 863.419495,1039.724365 863.312927,1044.913696 
	C863.382568,1046.845093 863.466980,1047.934448 863.551453,1049.023926 
	C863.466919,1053.705322 863.382385,1058.386841 863.288269,1063.978027 
	C863.352783,1071.628418 863.426880,1078.368774 863.500977,1085.109253 
	C863.427917,1087.148682 863.354797,1089.188110 863.269653,1092.040527 
	C863.356079,1096.270996 863.454468,1099.688477 863.552856,1103.106079 
	C863.479004,1105.797363 863.405212,1108.488647 863.319702,1111.995361 
	C863.398926,1114.549072 863.489868,1116.287231 863.580811,1118.025513 
	C863.396362,1122.350586 863.211853,1126.675537 862.418396,1131.308105 
	C858.452393,1131.713623 855.095459,1131.811646 851.738464,1131.909668 
	C847.011353,1131.824341 842.284180,1131.738892 837.020752,1131.298340 
	C836.297607,1129.961182 836.110840,1128.979004 835.924072,1127.996948 
	C836.003418,1127.550171 836.082825,1127.103516 836.180786,1125.877686 
	C836.258301,1098.009277 836.365906,1070.920166 836.356140,1043.830933 
	C836.351013,1029.554443 836.140808,1015.277832 836.023132,1001.001282 
	C836.104614,1000.550598 836.186035,1000.099915 836.288391,998.877014 
	C836.336365,979.781189 836.364563,961.457642 836.389221,943.134033 
	C836.392273,940.846741 837.015259,938.014160 832.993286,939.152832 
	C830.470215,939.092346 827.947083,939.031860 824.657593,938.957397 
	C808.258850,939.009949 792.626587,939.076477 776.994263,939.143005 
	C773.918762,938.635986 770.843262,938.129028 767.745972,936.896851 
	C767.816650,929.115662 767.909180,922.059753 768.001709,915.003784 
z"/>

<path fill="#613CB2" opacity="1.000000" stroke="none" 
	d="
M1317.239258,1134.447388 
	C1303.451294,1134.949463 1290.088501,1134.330200 1276.656250,1130.429688 
	C1269.276123,1127.510864 1262.293579,1124.645386 1255.002808,1121.660889 
	C1242.920532,1114.393188 1232.027954,1106.221069 1223.720581,1094.613647 
	C1224.838379,1095.031494 1226.314209,1095.541382 1227.215332,1096.559570 
	C1244.094238,1115.631836 1264.995361,1127.810181 1290.137817,1131.688354 
	C1303.838989,1133.801758 1317.626953,1133.336792 1331.543945,1130.614014 
	C1347.611572,1127.470337 1361.369751,1120.240112 1374.541748,1111.233276 
	C1377.744141,1109.043457 1380.784790,1106.617310 1384.089478,1104.711182 
	C1383.022827,1106.501099 1381.766602,1107.879639 1380.510254,1109.258179 
	C1380.510254,1109.258179 1380.390137,1109.385132 1380.036499,1109.536377 
	C1368.326050,1118.862183 1355.814087,1125.914429 1341.843262,1130.286987 
	C1339.797241,1130.781616 1337.751343,1131.276245 1334.997314,1131.890869 
	C1333.666992,1132.269653 1333.044678,1132.528687 1332.422363,1132.787842 
	C1331.804688,1132.801025 1331.187134,1132.814209 1329.923096,1132.926636 
	C1328.645996,1133.270020 1328.015259,1133.514160 1327.384521,1133.758301 
	C1326.155151,1133.802734 1324.925659,1133.847046 1322.962036,1133.933594 
	C1321.285278,1134.246582 1320.342773,1134.517334 1319.400269,1134.788086 
	C1318.786621,1134.645264 1318.173096,1134.502441 1317.239258,1134.447388 
z"/>

<path fill="#5F3DB3" opacity="1.000000" stroke="none" 
	d="
M1208.952148,1069.302979 
	C1206.378784,1059.244873 1203.990234,1049.486328 1201.437988,1038.953491 
	C1201.121582,1036.772949 1200.969116,1035.366699 1200.878540,1033.499023 
	C1200.890015,1027.024658 1200.839600,1021.011719 1200.884521,1014.621582 
	C1200.983154,1012.345459 1200.986694,1010.446594 1200.990234,1008.547729 
	C1204.408813,997.747314 1207.827515,986.946899 1211.321655,975.805969 
	C1211.397095,975.465454 1211.385376,975.350952 1211.564209,975.177124 
	C1211.814575,974.673157 1211.885986,974.342896 1211.957397,974.012695 
	C1211.957397,974.012695 1212.198364,973.827209 1212.467529,973.441589 
	C1213.358887,971.783264 1213.981079,970.510498 1214.603271,969.237793 
	C1215.078003,968.455627 1215.552612,967.673523 1216.321655,966.473755 
	C1216.730347,965.709717 1216.844849,965.363281 1216.959229,965.016846 
	C1216.959229,965.016846 1217.204102,964.838745 1217.478027,964.470276 
	C1218.310547,963.102600 1218.869019,962.103394 1219.427490,961.104126 
	C1219.706421,960.928833 1219.831421,960.677063 1220.088135,960.020752 
	C1225.289917,954.091980 1230.055420,948.348694 1235.177856,942.943359 
	C1238.337646,939.609009 1242.041260,936.789856 1245.500732,933.739258 
	C1245.500610,933.739258 1245.582520,933.632996 1245.968384,933.638794 
	C1249.654419,931.561829 1252.954712,929.479004 1256.255005,927.396118 
	C1256.255005,927.396179 1256.347656,927.406494 1256.687012,927.358032 
	C1258.066772,926.679016 1259.107056,926.048401 1260.147461,925.417847 
	C1261.238403,925.130188 1262.329346,924.842407 1263.731201,924.617920 
	C1264.042114,924.681213 1264.071899,925.061707 1264.071899,925.061768 
	C1259.792725,927.823547 1255.551880,930.647095 1251.227173,933.335815 
	C1237.064697,942.140869 1225.435669,953.407227 1217.430054,968.157898 
	C1211.650146,978.807434 1206.581787,989.802795 1204.616333,1001.854492 
	C1202.571533,1014.393433 1201.086792,1027.073975 1203.809570,1039.684570 
	C1206.236572,1050.924683 1209.258789,1062.036255 1211.816162,1073.593018 
	C1211.613892,1073.981689 1211.196655,1073.950073 1211.196777,1073.950073 
	C1210.510132,1072.500854 1209.823486,1071.051758 1208.952148,1069.302979 
z"/>

<path fill="#5C3AAD" opacity="1.000000" stroke="none" 
	d="
M1299.077148,1105.465698 
	C1319.949463,1108.062988 1338.418823,1102.672363 1355.654541,1091.045166 
	C1353.815308,1093.051514 1351.967041,1095.754883 1349.405884,1097.133545 
	C1334.178345,1105.329712 1317.836304,1109.965698 1300.569092,1107.759033 
	C1285.763550,1105.866943 1271.690552,1101.446533 1259.862061,1091.126709 
	C1252.262085,1084.496094 1246.829102,1076.579102 1241.813599,1068.145508 
	C1241.254761,1067.205811 1241.221313,1065.953735 1241.047363,1064.442139 
	C1241.150391,1064.037964 1241.391479,1064.024902 1241.391479,1064.024902 
	C1248.133179,1072.560181 1254.337769,1081.600586 1261.762329,1089.493408 
	C1269.712280,1097.944458 1280.602661,1101.618042 1292.398071,1104.427979 
	C1294.031494,1104.723999 1295.003418,1104.817749 1295.975220,1104.911621 
	C1296.893188,1105.114136 1297.811035,1105.316650 1299.077148,1105.465698 
z"/>

<path fill="#5F3DB2" opacity="1.000000" stroke="none" 
	d="
M1317.346436,1035.959961 
	C1322.270020,1031.401733 1327.254883,1026.395508 1332.854492,1022.212219 
	C1343.287720,1014.417969 1354.148071,1007.198486 1364.701538,999.561401 
	C1375.811279,991.521851 1386.668823,983.130676 1397.857788,975.205383 
	C1401.120239,972.894653 1401.349365,970.866577 1399.438232,967.815125 
	C1396.652588,963.367188 1393.979736,958.848572 1391.613037,954.157776 
	C1392.519165,954.408264 1393.070801,954.861145 1393.622559,955.314026 
	C1393.622559,955.314026 1393.747192,955.262573 1393.805420,955.603943 
	C1394.627197,956.801575 1395.390991,957.657776 1396.154785,958.513977 
	C1396.154785,958.513977 1396.247559,958.699219 1396.307983,959.097046 
	C1398.079834,962.092468 1399.791260,964.690063 1401.502563,967.287659 
	C1401.502563,967.287659 1401.520630,967.414062 1401.593506,967.701660 
	C1401.935669,968.381042 1402.204956,968.772888 1402.474243,969.164734 
	C1404.178101,971.590881 1403.349731,973.261047 1401.109253,974.891602 
	C1389.405396,983.409973 1377.790283,992.050415 1366.104980,1000.594666 
	C1349.983398,1012.382629 1333.826904,1024.122681 1317.346436,1035.959961 
z"/>

<path fill="#5E3CB3" opacity="1.000000" stroke="none" 
	d="
M1355.719238,924.639404 
	C1358.630493,926.236938 1361.231079,927.782898 1363.962646,929.634949 
	C1358.656006,927.744934 1353.196289,925.600891 1347.784668,923.342224 
	C1336.085571,918.459351 1323.629761,916.400330 1311.234863,916.291504 
	C1297.777710,916.173401 1284.208984,917.706604 1271.503052,923.161194 
	C1269.406982,924.061035 1267.072266,924.404419 1264.459839,925.033325 
	C1264.071899,925.061707 1264.042114,924.681213 1264.046387,924.490417 
	C1264.277588,924.063416 1264.504272,923.827148 1265.228027,923.368042 
	C1267.192139,922.561768 1268.659180,921.978516 1270.126343,921.395325 
	C1270.566406,921.292419 1271.006348,921.189453 1271.990234,920.956421 
	C1272.908081,920.766907 1273.132812,920.551697 1273.208496,920.180725 
	C1273.208496,920.180725 1273.243652,920.208679 1273.262817,920.221680 
	C1286.810059,916.210938 1300.575317,913.947144 1315.162842,914.569580 
	C1315.585571,914.489136 1315.754517,914.424683 1316.064209,914.573975 
	C1317.566040,914.747986 1318.758301,914.772583 1319.950439,914.797241 
	C1321.635742,915.067871 1323.321167,915.338562 1325.786377,915.736938 
	C1334.658081,917.978821 1342.749756,920.093079 1350.841553,922.207275 
	C1350.841553,922.207275 1350.938965,922.119873 1350.983887,922.358398 
	C1351.343140,922.674561 1351.657349,922.752197 1351.971680,922.829773 
	C1353.117310,923.415771 1354.262939,924.001770 1355.719238,924.639404 
z"/>

<path fill="#5E3AB3" opacity="1.000000" stroke="none" 
	d="
M1263.991943,955.979187 
	C1270.990967,949.027649 1279.737061,945.228455 1289.092285,943.125061 
	C1303.292114,939.932434 1317.573120,940.136353 1331.665894,944.137756 
	C1333.388550,944.626770 1334.961914,945.641907 1336.534180,946.695801 
	C1336.065918,946.962341 1335.667847,946.946350 1335.269897,946.930420 
	C1322.443970,943.649597 1309.548340,941.928162 1296.269043,943.995239 
	C1284.671143,945.800598 1274.225342,950.133301 1264.348877,956.691650 
	C1264.001709,956.344910 1263.996826,956.162048 1263.991943,955.979187 
z"/>
<path fill="#5C3AAF" opacity="1.000000" stroke="none" 
	d="
M1241.300171,1063.679932 
	C1241.391479,1064.024902 1241.150391,1064.037964 1241.030762,1064.060059 
	C1239.906738,1062.423462 1238.702026,1060.852661 1237.930664,1059.092163 
	C1232.860229,1047.519165 1231.225830,1035.109619 1231.261719,1022.764282 
	C1231.299438,1009.760742 1233.422119,996.821838 1240.936646,985.236694 
	C1239.153442,992.036377 1236.552856,998.880005 1235.024902,1005.955261 
	C1230.761841,1025.696167 1233.945801,1044.767212 1241.300171,1063.679932 
z"/>

<path fill="#5F3DB2" opacity="1.000000" stroke="none" 
	d="
M1328.506348,988.818359 
	C1326.584229,991.182739 1324.604736,993.982361 1321.977905,995.891418 
	C1312.038940,1003.114685 1301.765869,1009.882446 1291.922852,1017.229492 
	C1289.905151,1018.735535 1289.204590,1022.006348 1287.793945,1024.880859 
	C1286.557983,1023.910583 1285.425049,1022.523193 1283.937988,1020.702148 
	C1298.870117,1009.943054 1313.510864,999.393860 1328.506348,988.818359 
z"/>

<path fill="#5C3AAD" opacity="1.000000" stroke="none" 
	d="
M1371.924438,1073.652832 
	C1373.779663,1068.827026 1375.797607,1063.893066 1378.377319,1059.272705 
	C1379.088745,1057.998657 1381.462280,1057.030151 1383.095459,1056.996704 
	C1392.077637,1056.812622 1401.066528,1056.962158 1410.520752,1057.015869 
	C1411.028687,1057.198486 1411.068970,1057.362549 1411.058472,1058.005249 
	C1411.029541,1058.652710 1411.051514,1058.821411 1411.073486,1058.989990 
	C1410.908813,1059.396729 1410.744141,1059.803467 1410.395752,1060.824463 
	C1410.009155,1062.504517 1409.806152,1063.570312 1409.603027,1064.636230 
	C1409.603027,1064.636230 1409.615601,1064.694580 1409.442383,1064.855957 
	C1409.113647,1065.322754 1409.082764,1065.640381 1409.176758,1065.970093 
	C1408.753174,1066.958862 1408.329590,1067.947632 1407.649902,1069.346680 
	C1407.393677,1069.756958 1406.988525,1070.007080 1406.988525,1070.007080 
	C1407.403442,1067.582886 1407.473755,1065.030762 1408.315308,1062.765015 
	C1409.523315,1059.513550 1407.982666,1058.206299 1405.298340,1058.133789 
	C1397.857910,1057.932373 1390.399658,1057.860229 1382.971191,1058.214233 
	C1381.570923,1058.281006 1379.941895,1060.340698 1378.996948,1061.844360 
	C1376.589844,1065.674316 1374.509888,1069.709839 1371.924438,1073.652832 
z"/>

<path fill="#5F3DB2" opacity="1.000000" stroke="none" 
	d="
M1357.975342,958.997070 
	C1359.002197,960.449707 1360.028931,961.902344 1361.088135,963.931152 
	C1361.120728,964.507385 1361.162354,964.985535 1361.162354,964.985474 
	C1355.262207,969.566284 1349.362061,974.147095 1343.093140,978.770142 
	C1348.700073,974.027649 1354.675903,969.242798 1361.115601,964.086609 
	C1358.476807,961.657166 1356.094360,959.463867 1353.463379,957.044556 
	C1353.214722,956.818665 1353.187744,956.799194 1353.492676,956.861450 
	C1354.212891,956.941956 1354.628174,956.960083 1355.043335,956.978271 
	C1355.475952,957.002869 1355.908691,957.027466 1356.690430,957.362915 
	C1357.351562,958.114807 1357.663452,958.555908 1357.975342,958.997070 
z"/>
<path fill="#613CB2" opacity="1.000000" stroke="none" 
	d="
M1406.387207,1072.479736 
	C1401.440308,1080.832642 1396.574341,1088.840576 1391.401123,1096.988159 
	C1391.325562,1096.028564 1391.299072,1094.781860 1391.829590,1093.853149 
	C1396.307739,1086.012695 1400.887695,1078.230469 1405.791504,1070.419189 
	C1406.287720,1070.661987 1406.479370,1070.870239 1406.839233,1071.006836 
	C1406.957520,1070.981079 1407.190552,1070.915771 1407.190552,1070.915771 
	C1406.949707,1071.322021 1406.708862,1071.728271 1406.387207,1072.479736 
z"/>

<path fill="#5F3DB2" opacity="1.000000" stroke="none" 
	d="
M1301.929688,1043.008301 
	C1305.144165,1041.770996 1308.358643,1040.533691 1311.950684,1039.285645 
	C1309.099243,1041.777832 1305.870117,1044.280762 1302.093384,1047.208130 
	C1300.816895,1045.180054 1299.805664,1043.573608 1298.721069,1041.634888 
	C1298.996826,1041.372314 1299.346069,1041.442139 1300.006348,1041.988403 
	C1300.854858,1042.645996 1301.392212,1042.827148 1301.929688,1043.008301 
z"/>
<path fill="#5F3DB2" opacity="1.000000" stroke="none"
	d="
M1340.791016,979.921631 
	C1337.250366,982.908447 1333.410156,985.934448 1329.189697,988.904297 
	C1332.703491,985.885742 1336.597412,982.923340 1340.791016,979.921631 
z"/>

<path fill="#5C3AAF" opacity="1.000000" stroke="none" 
	d="
M1263.647705,956.024353 
	C1263.996826,956.162048 1264.001709,956.344910 1264.016113,956.802124 
	C1261.001221,960.075562 1257.976807,963.074707 1254.654785,966.212097 
	C1257.339233,962.923401 1260.321411,959.496460 1263.647705,956.024353 
z"/>

<path fill="#5C3AAF" opacity="1.000000" stroke="none" 
	d="
M1242.500732,983.033447 
	C1241.340454,977.812378 1246.406128,975.915894 1248.969727,972.244995 
	C1247.134033,975.715271 1244.959717,979.283691 1242.500732,983.033447 
z"/>
<path fill="#5E3CB3" opacity="1.000000" stroke="none" 
	d="
M1382.396729,943.934814 
	C1383.157349,944.045288 1383.762695,944.507568 1384.636108,945.092773 
	C1385.903076,946.449097 1386.902100,947.682556 1388.267090,949.362122 
	C1388.779175,950.188171 1388.925415,950.568054 1389.071655,950.947998 
	C1386.794800,948.727478 1384.518066,946.507019 1382.396729,943.934814 
z"/>

<path fill="#5C3AAD" opacity="1.000000" stroke="none" 
	d="
M1367.863403,1077.854004 
	C1368.306396,1077.489624 1368.699097,1077.161011 1369.321533,1076.722168 
	C1367.893433,1079.042725 1366.235718,1081.473633 1364.297363,1083.594971 
	C1364.185547,1082.926270 1364.354370,1082.567261 1364.523315,1082.208252 
	C1364.772095,1082.137329 1364.959351,1081.988647 1365.409790,1081.403198 
	C1366.388916,1080.007080 1367.043457,1078.970337 1367.697998,1077.933594 
	C1367.697998,1077.933594 1367.813232,1077.889771 1367.863403,1077.854004 
z"/>
<path fill="#613CB2" opacity="1.000000" stroke="none" 
	d="
M1211.248291,1074.295898 
	C1211.196655,1073.950073 1211.613892,1073.981689 1211.823364,1073.990845 
	C1213.648682,1077.179199 1215.264404,1080.358398 1216.815918,1083.916626 
	C1216.751587,1084.295654 1216.302734,1084.202637 1216.067627,1083.836670 
	C1215.599854,1083.200562 1215.367310,1082.930420 1215.134766,1082.660400 
	C1213.856445,1079.987549 1212.578247,1077.314697 1211.248291,1074.295898 
z"/>
<path fill="#5F3DB2" opacity="1.000000" stroke="none" 
	d="
M1346.208252,952.111511 
	C1347.818359,952.466553 1349.649658,953.073730 1351.869629,954.152954 
	C1352.567993,955.349792 1352.877808,956.074463 1353.187744,956.799194 
	C1353.187744,956.799194 1353.214722,956.818665 1353.232178,956.809387 
	C1350.976318,955.321289 1348.702881,953.842468 1346.208252,952.111511 
z"/>

<path fill="#5F3DB2" opacity="1.000000" stroke="none" 
	d="
M1287.705566,1025.576416 
	C1289.066284,1026.991943 1290.488892,1028.744385 1291.826660,1030.879395 
	C1290.417114,1029.479126 1289.092163,1027.696289 1287.705566,1025.576416 
z"/>

<path fill="#5F3DB2" opacity="1.000000" stroke="none" 
	d="
M1291.761719,1031.566284 
	C1292.738159,1032.362061 1293.772949,1033.476807 1294.678589,1034.959839 
	C1293.639526,1034.180542 1292.729858,1033.032837 1291.761719,1031.566284 
z"/>
<path fill="#5C3AAF" opacity="1.000000" stroke="none" 
	d="
M1249.538818,972.142944 
	C1250.063599,970.932617 1250.877075,969.587524 1252.059448,968.359253 
	C1251.561523,969.653442 1250.694702,970.830872 1249.538818,972.142944 
z"/>

<path fill="#5F3DB2" opacity="1.000000" stroke="none" 
	d="
M1339.769531,948.994690 
	C1339.555786,948.795654 1339.800049,948.765747 1340.166016,948.816528 
	C1340.700684,948.862915 1340.869141,948.858521 1341.037598,948.854004 
	C1342.297607,949.476318 1343.557495,950.098633 1344.935059,950.993652 
	C1343.362915,950.575562 1341.673096,949.884644 1339.769531,948.994690 
z"/>

<path fill="#613CB2" opacity="1.000000" stroke="none" 
	d="
M1219.796143,1088.904663 
	C1219.525391,1089.052490 1219.208130,1088.849243 1218.662598,1088.467529 
	C1217.874512,1087.127075 1217.314331,1085.965210 1216.722168,1084.478027 
	C1217.709839,1085.619629 1218.729614,1087.086548 1219.796143,1088.904663 
z"/>

<path fill="#5F3DB2" opacity="1.000000" stroke="none" 
	d="
M1312.665527,1039.308838 
	C1313.068604,1038.611694 1313.774414,1037.850220 1314.872192,1037.172363 
	C1314.498901,1037.918823 1313.733521,1038.581787 1312.665527,1039.308838 
z"/>
<path fill="#5F3DB2" opacity="1.000000" stroke="none"
	d="
M1296.699951,1038.626099 
	C1297.388550,1039.053467 1298.135254,1039.785767 1298.775879,1040.908447 
	C1298.032471,1040.509521 1297.395142,1039.720215 1296.699951,1038.626099 
z"/>

<path fill="#5F3DB2" opacity="1.000000" stroke="none" 
	d="
M1335.493896,947.120361 
	C1335.667847,946.946350 1336.065918,946.962341 1336.764404,946.970032 
	C1337.609985,947.350891 1338.155029,947.739990 1338.863525,948.323486 
	C1337.924072,948.115356 1336.820923,947.712830 1335.493896,947.120361 
z"/>

<path fill="#5F3DB2" opacity="1.000000" stroke="none" 
	d="
M1294.643066,1035.654785 
	C1295.299683,1036.098877 1296.018188,1036.853882 1296.744019,1037.958008 
	C1296.069214,1037.526611 1295.387085,1036.746094 1294.643066,1035.654785 
z"/>

<path fill="#5F3DB2" opacity="1.000000" stroke="none" 
	d="
M1315.464600,1037.261475 
	C1315.577515,1036.885498 1315.986328,1036.461670 1316.718750,1036.025635 
	C1316.615234,1036.413574 1316.187866,1036.813599 1315.464600,1037.261475 
z"/>
<path fill="#5C3AAF" opacity="1.000000" stroke="none"
	d="
M1241.460449,985.037964 
	C1241.349121,984.584473 1241.496704,983.961731 1241.968506,983.233032 
	C1242.101807,983.707581 1241.910645,984.288086 1241.460449,985.037964 
z"/>

<path fill="#5C3AAF" opacity="1.000000" stroke="none" 
	d="
M1253.631714,967.299988 
	C1253.506714,967.036865 1253.632935,966.684753 1254.064453,966.312317 
	C1254.207520,966.598328 1254.045288,966.904663 1253.631714,967.299988 
z"/>
<path fill="#5C3AAF" opacity="1.000000" stroke="none" 
	d="
M1252.658936,968.322571 
	C1252.537964,968.056946 1252.660767,967.705383 1253.091919,967.358215 
	C1253.234375,967.653992 1253.068481,967.945251 1252.658936,968.322571 
z"/>
<path fill="#5F3DB2" opacity="1.000000" stroke="none"
	d="
M1342.499268,978.736450 
	C1342.572021,978.943176 1342.409058,979.197693 1342.105225,979.306763 
	C1341.964355,979.161255 1342.263550,978.784302 1342.499268,978.736450 
z"/>

<path fill="#5E3CB3" opacity="1.000000" stroke="none"
	d="
M1364.153931,930.215942 
	C1368.677246,933.012756 1373.321899,936.130920 1378.059082,939.574707 
	C1373.526001,936.779297 1368.900757,933.658264 1364.153931,930.215942 
z"/>
<path fill="#613CB2" opacity="1.000000" stroke="none" 
	d="
M1389.367676,1099.952271 
	C1387.863525,1101.539429 1386.509155,1102.856812 1384.880615,1104.297363 
	C1386.544800,1101.971680 1388.483276,1099.522705 1390.779297,1097.080688 
	C1390.596924,1097.952759 1390.057251,1098.817627 1389.367676,1099.952271 
z"/>
<path fill="#5C3AAD" opacity="1.000000" stroke="none" 
	d="
M1359.292847,1087.813965 
	C1359.807983,1087.400757 1360.115601,1087.218262 1360.681396,1086.962646 
	C1359.526855,1088.264160 1358.114136,1089.638794 1356.329346,1091.000732 
	C1356.999878,1090.007080 1358.042603,1089.025757 1359.292847,1087.813965 
z"/>
<path fill="#613CB2" opacity="1.000000" stroke="none" 
	d="
M1223.731934,1093.971069 
	C1222.805908,1093.421753 1221.974365,1092.513428 1221.065918,1091.298218 
	C1221.934937,1091.864868 1222.880615,1092.738525 1223.731934,1093.971069 
z"/>
<path fill="#5E3AB3" opacity="1.000000" stroke="none" 
	d="
M1353.492676,956.861450 
	C1352.877808,956.074463 1352.567993,955.349792 1352.136963,954.355835 
	C1353.007812,954.806702 1353.999634,955.526733 1355.017334,956.612488 
	C1354.628174,956.960083 1354.212891,956.941956 1353.492676,956.861450 
z"/>
<path fill="#5C3AAD" opacity="1.000000" stroke="none" 
	d="
M1369.935669,1076.654785 
	C1370.050415,1075.755615 1370.540161,1074.862549 1371.288818,1073.806396 
	C1371.135254,1074.649048 1370.722900,1075.654907 1369.935669,1076.654785 
z"/>
<path fill="#5E3CB3" opacity="1.000000" stroke="none" 
	d="
M1378.115234,940.211243 
	C1378.786499,940.209473 1379.477539,940.572876 1380.288086,941.206543 
	C1379.650024,941.176636 1378.892578,940.876587 1378.115234,940.211243 
z"/>
<path fill="#5F3DB2" opacity="1.000000" stroke="none" 
	d="
M1389.043579,951.271301 
	C1389.493286,951.236694 1389.944946,951.550964 1390.654297,951.970947 
	C1391.040771,952.433472 1391.169434,952.790222 1391.342529,953.428101 
	C1390.606567,953.012817 1389.826050,952.316528 1389.043579,951.271301 
z"/>
<path fill="#5F3CB2" opacity="1.000000" stroke="none" 
	d="
M1301.779907,1042.760620 
	C1301.392212,1042.827148 1300.854858,1042.645996 1300.165039,1042.215820 
	C1300.551758,1042.148804 1301.090942,1042.330933 1301.779907,1042.760620 
z"/>
<path fill="#5E3AB3" opacity="1.000000" stroke="none" 
	d="
M1357.960205,958.708008 
	C1357.663452,958.555908 1357.351562,958.114807 1357.014038,957.393982 
	C1357.307251,957.549133 1357.626099,957.984070 1357.960205,958.708008 
z"/>
<path fill="#613CB2" opacity="1.000000" stroke="none" 
	d="
M1220.992065,1090.693970 
	C1220.611816,1090.586914 1220.218384,1090.159912 1219.775269,1089.437012 
	C1220.143433,1089.552246 1220.561035,1089.963013 1220.992065,1090.693970 
z"/>
<path fill="#5E3AB3" opacity="1.000000" stroke="none" 
	d="
M1361.300537,964.897461 
	C1361.162354,964.985535 1361.120728,964.507385 1361.163696,964.271973 
	C1361.566162,964.228577 1361.643555,964.486206 1361.300537,964.897461 
z"/>
<path fill="#5E3AB3" opacity="1.000000" stroke="none" 
	d="
M1340.944946,948.712402 
	C1340.869141,948.858521 1340.700684,948.862915 1340.288330,948.803345 
	C1340.264526,948.387390 1340.533813,948.331238 1340.944946,948.712402 
z"/>
<path fill="#5E3CB3" opacity="1.000000" stroke="none" 
	d="
M1381.396240,942.899048 
	C1381.707397,942.754333 1381.988892,942.913879 1382.339233,943.312134 
	C1382.060913,943.435059 1381.713623,943.319214 1381.396240,942.899048 
z"/>
<path fill="#5E3CB3" opacity="1.000000" stroke="none" 
	d="
M1380.395996,941.901001 
	C1380.703613,941.761780 1380.982300,941.926025 1381.333862,942.328308 
	C1381.060181,942.445801 1380.713623,942.325195 1380.395996,941.901001 
z"/>
<path fill="#5C3AAD" opacity="1.000000" stroke="none" 
	d="
M1406.745605,1069.979980 
	C1406.993286,1070.169678 1406.988647,1070.355469 1406.852539,1070.786865 
	C1406.479370,1070.870239 1406.287720,1070.661987 1406.068115,1070.208740 
	C1406.157959,1069.998535 1406.325684,1069.987305 1406.745605,1069.979980 
z"/>
<path fill="#5C3AAD" opacity="1.000000" stroke="none" 
	d="
M1363.077759,1084.873779 
	C1363.003296,1084.648560 1363.200073,1084.336304 1363.666870,1083.935791 
	C1363.740845,1084.160400 1363.544922,1084.473511 1363.077759,1084.873779 
z"/>
<path fill="#5C3AAD" opacity="1.000000" stroke="none" 
	d="
M1361.152222,1086.866455 
	C1361.076660,1086.652710 1361.263306,1086.341919 1361.711914,1085.932251 
	C1361.787476,1086.145386 1361.600952,1086.457520 1361.152222,1086.866455 
z"/>

</svg>