<svg xmlns="http://www.w3.org/2000/svg" viewBox="1196 911 218 228">

<path fill="#5628D2"
	d="
M1345.986938,951.859375
	C1345.802734,951.805359 1345.618652,951.751282 1345.125977,951.209106
	C1343.557495,950.098633 1342.297607,949.476318 1340.944946,948.712402
	C1340.533813,948.331238 1340.264526,948.387390 1339.922363,948.752502
	C1339.800049,948.765747 1339.555786,948.795654 1339.555786,948.795654
	C1339.555786,948.795654 1339.224854,948.783630 1338.962402,948.456360
	C1338.155029,947.739990 1337.609985,947.350891 1336.834717,946.687561
	C1334.961914,945.641907 1333.388550,944.626770 1331.665894,944.137756
	C1317.573120,940.136353 1303.292114,939.932434 1289.092285,943.125061
	C1279.737061,945.228455 1270.990967,949.027649 1263.647705,956.024353
	C1260.321411,959.496460 1257.339233,962.923401 1254.357056,966.350342
	C1254.357056,966.350281 1254.114868,966.266968 1253.937012,966.299805
	C1253.632935,966.684753 1253.506714,967.036865 1253.380371,967.389038
	C1253.380371,967.389038 1253.026978,967.100708 1252.905273,967.227234
	C1252.660767,967.705383 1252.537964,968.056946 1252.415161,968.408569
	C1252.415161,968.408569 1252.304199,968.465271 1251.997314,968.353882
	C1250.877075,969.587524 1250.063599,970.932617 1249.250000,972.277649
	C1249.250000,972.277649 1249.169800,972.163452 1248.900513,972.253296
	C1246.406128,975.915894 1241.340454,977.812378 1242.215942,983.214722
	C1242.215942,983.214722 1242.177734,983.103333 1241.910889,983.221130
	C1241.496704,983.961731 1241.349121,984.584473 1241.201660,985.207275
	C1241.201660,985.207275 1241.140137,985.098694 1240.874512,985.242493
	C1233.422119,996.821838 1231.299438,1009.760742 1231.261719,1022.764282
	C1231.225830,1035.109619 1232.860229,1047.519165 1237.930664,1059.092163
	C1238.702026,1060.852661 1239.906738,1062.423462 1240.927612,1064.464233
	C1241.221313,1065.953735 1241.254761,1067.205811 1241.813599,1068.145508
	C1246.829102,1076.579102 1252.262085,1084.496094 1259.862061,1091.126709
	C1271.690552,1101.446533 1285.763550,1105.866943 1300.569092,1107.759033
	C1317.836304,1109.965698 1334.178345,1105.329712 1349.405884,1097.133545
	C1351.967041,1095.754883 1353.815308,1093.051514 1355.996460,1090.983276
	C1356.000000,1091.006226 1355.957275,1090.988281 1356.329346,1091.000732
	C1358.114136,1089.638794 1359.526855,1088.264160 1360.954590,1086.926514
	C1360.969604,1086.963501 1360.890015,1086.963379 1361.152222,1086.866455
	C1361.600952,1086.457520 1361.787476,1086.145386 1362.039795,1085.627930
	C1362.266968,1085.159424 1362.500610,1085.005493 1363.077637,1084.873657
	C1363.544922,1084.473511 1363.740845,1084.160400 1363.924683,1083.881348
	C1363.912476,1083.915161 1363.863525,1083.862061 1364.220703,1083.883301
	C1366.235718,1081.473633 1367.893433,1079.042725 1369.687012,1076.586914
	C1369.822754,1076.562012 1369.560669,1076.648560 1369.935669,1076.654785
	C1370.722900,1075.654907 1371.135254,1074.649048 1371.768921,1073.821533
	C1371.843384,1073.880981 1371.696655,1073.761841 1371.924438,1073.652832
	C1374.509888,1069.709839 1376.589844,1065.674316 1378.996948,1061.844360
	C1379.941895,1060.340698 1381.570923,1058.281006 1382.971191,1058.214233
	C1390.399658,1057.860229 1397.857910,1057.932373 1405.298340,1058.133789
	C1407.982666,1058.206299 1409.523315,1059.513550 1408.315308,1062.765015
	C1407.473755,1065.030762 1407.403442,1067.582886 1406.993408,1070.001709
	C1406.998047,1069.996338 1406.997803,1069.983887 1406.745605,1069.979980
	C1406.325684,1069.987305 1406.157959,1069.998535 1405.713623,1070.220215
	C1400.887695,1078.230469 1396.307739,1086.012695 1391.829590,1093.853149
	C1391.299072,1094.781860 1391.325562,1096.028564 1391.066895,1097.077393
	C1391.040039,1097.026978 1391.136841,1097.087891 1390.779297,1097.080811
	C1388.483276,1099.522705 1386.544800,1101.971680 1384.610107,1104.455322
	C1384.613892,1104.489868 1384.616821,1104.559326 1384.258301,1104.429565
	C1380.784790,1106.617310 1377.744141,1109.043457 1374.541748,1111.233276
	C1361.369751,1120.240112 1347.611572,1127.470337 1331.543945,1130.614014
	C1317.626953,1133.336792 1303.838989,1133.801758 1290.137817,1131.688354
	C1264.995361,1127.810181 1244.094238,1115.631836 1227.215332,1096.559570
	C1226.314209,1095.541382 1224.838379,1095.031494 1223.781738,1094.271851
	C1223.933228,1094.258789 1223.637451,1094.330078 1223.731934,1093.971069
	C1222.880615,1092.738525 1221.934937,1091.864868 1220.997070,1090.994141
	C1221.004883,1090.996948 1221.005371,1091.014038 1220.992065,1090.693970
	C1220.561035,1089.963013 1220.143433,1089.552246 1219.796875,1089.127197
	C1219.867920,1089.113037 1219.842651,1089.255859 1219.796143,1088.904663
	C1218.729614,1087.086548 1217.709839,1085.619629 1216.690063,1084.152710
	C1216.690063,1084.152710 1216.836304,1084.174438 1216.858276,1083.855957
	C1215.264404,1080.358398 1213.648682,1077.179199 1212.025635,1073.602295
	C1209.258789,1062.036255 1206.236572,1050.924683 1203.809570,1039.684570
	C1201.086792,1027.073975 1202.571533,1014.393433 1204.616333,1001.854492
	C1206.581787,989.802795 1211.650146,978.807434 1217.430054,968.157898
	C1225.435669,953.407227 1237.064697,942.140869 1251.227173,933.335815
	C1255.551880,930.647095 1259.792725,927.823547 1264.459839,925.033325
	C1267.072266,924.404419 1269.406982,924.061035 1271.503052,923.161194
	C1284.208984,917.706604 1297.777710,916.173401 1311.234863,916.291504
	C1323.629761,916.400330 1336.085571,918.459351 1347.784668,923.342224
	C1353.196289,925.600891 1358.656006,927.744934 1364.057495,929.957275
	C1364.021118,929.973511 1364.032471,929.894592 1364.153931,930.215942
	C1368.900757,933.658264 1373.526001,936.779297 1378.104248,939.920837
	C1378.057251,939.941406 1378.095337,939.846008 1378.115234,940.211243
	C1378.892578,940.876587 1379.650024,941.176636 1380.394287,941.509460
	C1380.380981,941.542175 1380.424927,941.597473 1380.395996,941.901001
	C1380.713623,942.325195 1381.060181,942.445801 1381.218750,942.704590
	C1381.030884,942.842896 1381.426025,942.594788 1381.396240,942.899048
	C1381.713623,943.319214 1382.060913,943.435059 1382.440430,943.575562
	C1382.472656,943.600159 1382.552002,943.583008 1382.396729,943.934814
	C1384.518066,946.507019 1386.794800,948.727478 1389.049561,950.957214
	C1389.027344,950.966431 1389.041748,950.922424 1389.043579,951.271301
	C1389.826050,952.316528 1390.606567,953.012817 1391.414062,953.693604
	C1391.440918,953.678040 1391.501831,953.666382 1391.380249,954.013306
	C1393.979736,958.848572 1396.652588,963.367188 1399.438232,967.815125
	C1401.349365,970.866577 1401.120239,972.894653 1397.857788,975.205383
	C1386.668823,983.130676 1375.811279,991.521851 1364.701538,999.561401
	C1354.148071,1007.198486 1343.287720,1014.417969 1332.854492,1022.212219
	C1327.254883,1026.395508 1322.270020,1031.401733 1317.007690,1036.036621
	C1317.007690,1036.036621 1317.003784,1035.992676 1316.699463,1036.015259
	C1315.986328,1036.461670 1315.577515,1036.885498 1315.168823,1037.309326
	C1315.168823,1037.309326 1315.163818,1037.188477 1314.822021,1037.138672
	C1313.774414,1037.850220 1313.068604,1038.611694 1312.362793,1039.373047
	C1312.362793,1039.373047 1312.268311,1039.351074 1311.920654,1039.323730
	C1308.358643,1040.533691 1305.144165,1041.770996 1301.779907,1042.760620
	C1301.090942,1042.330933 1300.551758,1042.148804 1299.853882,1041.739258
	C1299.346069,1041.442139 1298.996826,1041.372314 1298.647705,1041.302612
	C1298.647705,1041.302612 1298.668457,1041.074463 1298.775146,1040.796265
	C1298.135254,1039.785767 1297.388550,1039.053467 1296.641968,1038.321167
	C1296.641968,1038.321167 1296.684570,1038.220703 1296.710693,1037.914795
	C1296.018188,1036.853882 1295.299683,1036.098877 1294.581177,1035.343750
	C1294.581177,1035.343750 1294.737549,1034.987061 1294.772705,1034.789307
	C1293.772949,1033.476807 1292.738159,1032.362061 1291.703369,1031.247314
	C1291.703369,1031.247314 1291.817505,1031.006714 1291.864502,1030.751709
	C1290.488892,1028.744385 1289.066284,1026.991943 1287.643677,1025.239502
	C1287.643677,1025.239502 1287.818481,1025.146606 1287.857666,1024.805176
	C1289.204590,1022.006348 1289.905151,1018.735535 1291.922852,1017.229492
	C1301.765869,1009.882446 1312.038940,1003.114685 1321.977905,995.891418
	C1324.604736,993.982361 1326.584229,991.182739 1328.860962,988.792114
	C1328.860962,988.792114 1328.924927,988.902649 1329.247437,988.931580
	C1333.410156,985.934448 1337.250366,982.908447 1341.090576,979.882385
	C1341.200073,979.718384 1341.309448,979.554321 1341.832520,979.421265
	C1342.409058,979.197693 1342.572021,978.943176 1342.735107,978.688599
	C1342.735107,978.688599 1342.832397,978.759644 1343.147217,978.743774
	C1349.362061,974.147095 1355.262207,969.566284 1361.300537,964.897461
	C1361.643555,964.486206 1361.566162,964.228577 1361.131104,963.695740
	C1360.028931,961.902344 1359.002197,960.449707 1357.960083,958.708008
	C1357.626099,957.984070 1357.307251,957.549133 1356.664795,957.083130
	C1355.908691,957.027466 1355.475952,957.002869 1355.017334,956.612549
	C1353.999634,955.526733 1353.007812,954.806702 1351.748535,953.883789
	C1349.649658,953.073730 1347.818359,952.466553 1345.986938,951.859375
z"/>

</svg>